<svg width="960" height="256" viewBox="0 0 960 256" fill="none" xmlns="http://www.w3.org/2000/svg" role="img" aria-labelledby="title desc">
  <title id="title">SocketLens logo</title>
  <desc id="desc">Temporary SocketLens logo for alpha branding.</desc>
  <rect width="960" height="256" rx="40" fill="#F7FAFC"/>
  <rect x="32" y="32" width="192" height="192" rx="42" fill="#08101A"/>
  <path d="M85 91c0-14.359 11.641-26 26-26h29c24.301 0 44 19.699 44 44v7" stroke="#0891A0" stroke-width="13" stroke-linecap="round"/>
  <path d="M184 165c0 14.359-11.641 26-26 26h-29c-24.301 0-44-19.699-44-44v-7" stroke="#D89628" stroke-width="13" stroke-linecap="round"/>
  <path d="M105 128h58" stroke="#1B2635" stroke-width="13" stroke-linecap="round"/>
  <path d="M148 107l23 21-23 21" stroke="#1B2635" stroke-width="13" stroke-linecap="round" stroke-linejoin="round"/>
  <circle cx="85" cy="128" r="8" fill="#0891A0"/>
  <circle cx="184" cy="128" r="8" fill="#D89628"/>
  <text x="260" y="116" fill="#0B1220" font-family="Inter, Segoe UI, Arial, sans-serif" font-size="56" font-weight="760" letter-spacing="0">SocketLens</text>
  <text x="264" y="160" fill="#526071" font-family="Inter, Segoe UI, Arial, sans-serif" font-size="22" font-weight="500" letter-spacing="0">Local-first WebSocket debugging workspace</text>
</svg>
