<svg width="960" height="256" viewBox="0 0 960 256" fill="none" xmlns="http://www.w3.org/2000/svg" role="img" aria-labelledby="title desc">
  <title id="title">SocketLens dark logo</title>
  <desc id="desc">Temporary dark SocketLens logo for alpha branding.</desc>
  <rect width="960" height="256" rx="40" fill="#070B12"/>
  <rect x="32" y="32" width="192" height="192" rx="42" fill="#0B1622" stroke="#123042" stroke-width="2"/>
  <path d="M85 91c0-14.359 11.641-26 26-26h29c24.301 0 44 19.699 44 44v7" stroke="#12D9E4" stroke-width="13" stroke-linecap="round"/>
  <path d="M184 165c0 14.359-11.641 26-26 26h-29c-24.301 0-44-19.699-44-44v-7" stroke="#F7B955" stroke-width="13" stroke-linecap="round"/>
  <path d="M105 128h58" stroke="#D9F9FB" stroke-width="13" stroke-linecap="round"/>
  <path d="M148 107l23 21-23 21" stroke="#D9F9FB" stroke-width="13" stroke-linecap="round" stroke-linejoin="round"/>
  <circle cx="85" cy="128" r="8" fill="#12D9E4"/>
  <circle cx="184" cy="128" r="8" fill="#F7B955"/>
  <text x="260" y="116" fill="#E7EEF7" font-family="Inter, Segoe UI, Arial, sans-serif" font-size="56" font-weight="760" letter-spacing="0">SocketLens</text>
  <text x="264" y="160" fill="#9AA7B8" font-family="Inter, Segoe UI, Arial, sans-serif" font-size="22" font-weight="500" letter-spacing="0">Local-first WebSocket debugging workspace</text>
</svg>
