<svg width="1920" height="640" viewBox="0 0 1920 640" fill="none" xmlns="http://www.w3.org/2000/svg" role="img" aria-labelledby="title desc">
  <title id="title">SocketLens GitHub banner</title>
  <desc id="desc">Wide banner showing SocketLens branding and a stylized WebSocket packet debugger interface.</desc>
  <defs>
    <linearGradient id="bannerBg" x1="0" y1="0" x2="1920" y2="640" gradientUnits="userSpaceOnUse">
      <stop stop-color="#05070A"/>
      <stop offset="0.56" stop-color="#0B1220"/>
      <stop offset="1" stop-color="#06191D"/>
    </linearGradient>
    <radialGradient id="pulse" cx="0" cy="0" r="1" gradientUnits="userSpaceOnUse" gradientTransform="translate(1460 222) rotate(128) scale(638 386)">
      <stop stop-color="#22D3EE" stop-opacity="0.24"/>
      <stop offset="1" stop-color="#22D3EE" stop-opacity="0"/>
    </radialGradient>
  </defs>
  <rect width="1920" height="640" fill="url(#bannerBg)"/>
  <rect width="1920" height="640" fill="url(#pulse)"/>
  <g opacity="0.45">
    <path d="M0 160H1920M0 320H1920M0 480H1920" stroke="#1F2937"/>
    <path d="M240 0V640M480 0V640M720 0V640M960 0V640M1200 0V640M1440 0V640M1680 0V640" stroke="#1F2937"/>
  </g>
  <g transform="translate(104 156)">
    <rect width="156" height="156" rx="34" fill="#0B1220" stroke="#1F2937" stroke-width="6"/>
    <circle cx="78" cy="78" r="48" stroke="#22D3EE" stroke-width="8"/>
    <circle cx="78" cy="78" r="18" fill="#22D3EE"/>
    <path d="M34 104C56 80 74 78 94 78C112 78 128 68 144 48" stroke="#22C55E" stroke-width="8" stroke-linecap="round"/>
    <circle cx="34" cy="104" r="10" fill="#071013" stroke="#22C55E" stroke-width="6"/>
    <circle cx="144" cy="48" r="10" fill="#071013" stroke="#22C55E" stroke-width="6"/>
  </g>
  <text x="302" y="230" fill="#F8FAFC" font-family="Inter, ui-sans-serif, system-ui, -apple-system, BlinkMacSystemFont, Segoe UI, sans-serif" font-size="92" font-weight="760">SocketLens</text>
  <text x="308" y="294" fill="#A8B3C7" font-family="Inter, ui-sans-serif, system-ui, -apple-system, BlinkMacSystemFont, Segoe UI, sans-serif" font-size="34" font-weight="500">Visual WebSocket debugging for realtime apps</text>
  <g transform="translate(306 348)">
    <rect width="142" height="44" rx="12" fill="#071013" stroke="#22D3EE" stroke-opacity="0.45"/>
    <text x="71" y="29" text-anchor="middle" fill="#67E8F9" font-family="Inter, ui-sans-serif, system-ui, sans-serif" font-size="18" font-weight="700">LOCAL-FIRST</text>
  </g>
  <g transform="translate(464 348)">
    <rect width="122" height="44" rx="12" fill="#071013" stroke="#22C55E" stroke-opacity="0.45"/>
    <text x="61" y="29" text-anchor="middle" fill="#86EFAC" font-family="Inter, ui-sans-serif, system-ui, sans-serif" font-size="18" font-weight="700">AGPL</text>
  </g>
  <g transform="translate(602 348)">
    <rect width="138" height="44" rx="12" fill="#071013" stroke="#F59E0B" stroke-opacity="0.45"/>
    <text x="69" y="29" text-anchor="middle" fill="#FCD34D" font-family="Inter, ui-sans-serif, system-ui, sans-serif" font-size="18" font-weight="700">ALPHA</text>
  </g>
  <g transform="translate(1028 96)">
    <rect width="740" height="448" rx="26" fill="#080C12" stroke="#1F2937" stroke-width="2"/>
    <rect x="24" y="24" width="692" height="52" rx="14" fill="#0D131C" stroke="#1F2937"/>
    <circle cx="54" cy="50" r="8" fill="#22C55E"/>
    <text x="78" y="58" fill="#CBD5E1" font-family="JetBrains Mono, ui-monospace, monospace" font-size="18">ws://127.0.0.1:17787</text>
    <rect x="24" y="96" width="164" height="328" rx="16" fill="#0B1220" stroke="#1F2937"/>
    <rect x="208" y="96" width="318" height="328" rx="16" fill="#05070A" stroke="#1F2937"/>
    <rect x="546" y="96" width="170" height="328" rx="16" fill="#0B1220" stroke="#1F2937"/>
    <text x="48" y="130" fill="#94A3B8" font-family="Inter, ui-sans-serif, system-ui, sans-serif" font-size="16" font-weight="700">SESSIONS</text>
    <rect x="44" y="152" width="120" height="38" rx="10" fill="#0B3B42" stroke="#22D3EE" stroke-opacity="0.35"/>
    <rect x="44" y="206" width="120" height="38" rx="10" fill="#111827" stroke="#1F2937"/>
    <rect x="44" y="260" width="120" height="38" rx="10" fill="#111827" stroke="#1F2937"/>
    <text x="232" y="132" fill="#94A3B8" font-family="Inter, ui-sans-serif, system-ui, sans-serif" font-size="16" font-weight="700">PACKET TIMELINE</text>
    <g font-family="JetBrains Mono, ui-monospace, monospace" font-size="15">
      <rect x="232" y="154" width="270" height="38" rx="10" fill="#0F172A"/>
      <text x="250" y="178" fill="#22C55E">IN</text><text x="302" y="178" fill="#E2E8F0">auth.session.ready</text>
      <rect x="232" y="204" width="270" height="38" rx="10" fill="#0F172A"/>
      <text x="250" y="228" fill="#22D3EE">OUT</text><text x="302" y="228" fill="#E2E8F0">chat.message.send</text>
      <rect x="232" y="254" width="270" height="38" rx="10" fill="#0F172A"/>
      <text x="250" y="278" fill="#FCD34D">IN</text><text x="302" y="278" fill="#E2E8F0">notify.created</text>
      <rect x="232" y="304" width="270" height="38" rx="10" fill="#2A1015"/>
      <text x="250" y="328" fill="#FB7185">IN</text><text x="302" y="328" fill="#E2E8F0">rate.limit.warn</text>
    </g>
    <text x="570" y="132" fill="#94A3B8" font-family="Inter, ui-sans-serif, system-ui, sans-serif" font-size="16" font-weight="700">PAYLOAD</text>
    <text x="570" y="174" fill="#67E8F9" font-family="JetBrains Mono, ui-monospace, monospace" font-size="15">{`{`}</text>
    <text x="590" y="202" fill="#CBD5E1" font-family="JetBrains Mono, ui-monospace, monospace" font-size="15">"type": "chat"</text>
    <text x="590" y="230" fill="#CBD5E1" font-family="JetBrains Mono, ui-monospace, monospace" font-size="15">"latency": 42</text>
    <text x="570" y="258" fill="#67E8F9" font-family="JetBrains Mono, ui-monospace, monospace" font-size="15">{`}`}</text>
  </g>
</svg>
