<svg width="1600" height="420" viewBox="0 0 1600 420" fill="none" xmlns="http://www.w3.org/2000/svg" role="img" aria-labelledby="title desc">
  <title id="title">SocketLens wordmark</title>
  <desc id="desc">SocketLens horizontal wordmark with app icon and alpha descriptor.</desc>
  <rect width="1600" height="420" rx="32" fill="#070A0F"/>
  <rect x="1" y="1" width="1598" height="418" rx="31" stroke="#1F2937" stroke-width="2"/>
  <g transform="translate(96 82) scale(0.25)">
    <rect width="1024" height="1024" rx="224" fill="#0B1220"/>
    <rect x="64" y="64" width="896" height="896" rx="184" stroke="#1F2937" stroke-width="24"/>
    <circle cx="512" cy="512" r="280" stroke="#22D3EE" stroke-width="34"/>
    <circle cx="512" cy="512" r="172" fill="#071013" stroke="#0F172A" stroke-width="28"/>
    <circle cx="512" cy="512" r="86" fill="#22D3EE"/>
    <circle cx="512" cy="512" r="38" fill="#05070A"/>
    <path d="M236 646C308 560 390 517 482 517H542C636 517 718 475 788 390" stroke="#22C55E" stroke-width="32" stroke-linecap="round"/>
    <circle cx="236" cy="646" r="42" fill="#071013" stroke="#22C55E" stroke-width="24"/>
    <circle cx="512" cy="517" r="36" fill="#071013" stroke="#22D3EE" stroke-width="22"/>
    <circle cx="788" cy="390" r="42" fill="#071013" stroke="#22C55E" stroke-width="24"/>
  </g>
  <text x="410" y="190" fill="#F8FAFC" font-family="Inter, ui-sans-serif, system-ui, -apple-system, BlinkMacSystemFont, Segoe UI, sans-serif" font-size="104" font-weight="720" letter-spacing="0">SocketLens</text>
  <text x="416" y="256" fill="#94A3B8" font-family="Inter, ui-sans-serif, system-ui, -apple-system, BlinkMacSystemFont, Segoe UI, sans-serif" font-size="34" font-weight="500" letter-spacing="0">Local-first WebSocket debugging for realtime apps</text>
  <g transform="translate(1258 147)">
    <rect width="214" height="62" rx="14" fill="#0B3B42" stroke="#22D3EE" stroke-opacity="0.45"/>
    <text x="107" y="40" text-anchor="middle" fill="#67E8F9" font-family="Inter, ui-sans-serif, system-ui, sans-serif" font-size="24" font-weight="700">ALPHA</text>
  </g>
</svg>
